<?xml version="1.0" encoding="UTF-8"?>
<svg xmlns="http://www.w3.org/2000/svg" xmlns:xlink="http://www.w3.org/1999/xlink" width="400px" height="px" viewBox="0 0 400 400" version="1.1">
<defs>
<linearGradient id="linear0" gradientUnits="userSpaceOnUse" x1="-102.120598" y1="-471.710388" x2="-102.120598" y2="-365.878387" gradientTransform="matrix(1.98,0,0,-1.98,402.040009,-634.330078)">
<stop offset="0" style="stop-color:rgb(12.54902%,45.882353%,73.72549%);stop-opacity:1;"/>
<stop offset="1" style="stop-color:rgb(16.078431%,66.666667%,88.235294%);stop-opacity:1;"/>
</linearGradient>
<linearGradient id="linear1" gradientUnits="userSpaceOnUse" x1="-147.090302" y1="-471.710388" x2="-147.090302" y2="-365.878387" gradientTransform="matrix(1.98,0,0,-1.98,402.040009,-634.330078)">
<stop offset="0" style="stop-color:rgb(3.921569%,41.568627%,65.882353%);stop-opacity:1;"/>
<stop offset="1" style="stop-color:rgb(8.627451%,60%,78.431373%);stop-opacity:1;"/>
</linearGradient>
<linearGradient id="linear2" gradientUnits="userSpaceOnUse" x1="-117.173798" y1="-471.710388" x2="-117.173798" y2="-365.878387" gradientTransform="matrix(1.98,0,0,-1.98,402.040009,-634.330078)">
<stop offset="0" style="stop-color:rgb(12.54902%,45.882353%,73.72549%);stop-opacity:1;"/>
<stop offset="1" style="stop-color:rgb(16.078431%,66.666667%,88.235294%);stop-opacity:1;"/>
</linearGradient>
<linearGradient id="linear3" gradientUnits="userSpaceOnUse" x1="-87.164101" y1="-471.710388" x2="-87.164101" y2="-365.878387" gradientTransform="matrix(1.98,0,0,-1.98,402.040009,-634.330078)">
<stop offset="0" style="stop-color:rgb(3.921569%,41.568627%,65.882353%);stop-opacity:1;"/>
<stop offset="1" style="stop-color:rgb(8.627451%,60%,78.431373%);stop-opacity:1;"/>
</linearGradient>
<linearGradient id="linear4" gradientUnits="userSpaceOnUse" x1="-57.245098" y1="-471.710388" x2="-57.245098" y2="-365.878387" gradientTransform="matrix(1.98,0,0,-1.98,402.040009,-634.330078)">
<stop offset="0" style="stop-color:rgb(12.54902%,45.882353%,73.72549%);stop-opacity:1;"/>
<stop offset="1" style="stop-color:rgb(16.078431%,66.666667%,88.235294%);stop-opacity:1;"/>
</linearGradient>
<clipPath id="clip1">
  <path d="M 115 134 L 286 134 L 286 264 L 115 264 Z M 115 134 "/>
</clipPath>
<clipPath id="clip2">
  <path d="M 284.621094 198.746094 C 282.402344 192.449219 283.140625 181.714844 282.03125 180.234375 C 274.996094 170.609375 249.816406 169.128906 238.34375 156.539062 C 240.195312 150.246094 236.121094 145.433594 232.050781 141.359375 C 225.753906 136.917969 217.242188 138.769531 210.574219 140.617188 C 203.171875 139.140625 196.136719 136.175781 188.734375 134.324219 C 172.445312 132.472656 156.152344 143.949219 156.152344 143.949219 C 144.304688 151.355469 126.167969 166.90625 117.28125 175.789062 C 119.503906 176.160156 121.722656 174.3125 124.316406 174.3125 L 141.34375 169.867188 C 134.3125 175.792969 119.503906 185.789062 115.0625 193.933594 C 120.242188 192.082031 131.347656 186.15625 136.902344 185.417969 C 132.089844 189.488281 122.09375 197.632812 118.761719 202.816406 C 119.132812 203.1875 118.761719 203.558594 118.761719 203.925781 C 122.835938 201.703125 132.828125 195.78125 137.644531 195.410156 C 132.832031 200.222656 124.316406 209.851562 122.464844 216.144531 C 126.535156 213.554688 136.902344 208 141.34375 206.515625 C 140.234375 209.109375 138.015625 210.960938 136.53125 213.179688 C 134.3125 216.515625 129.496094 220.585938 129.496094 224.660156 C 133.199219 221.324219 137.644531 218.363281 142.085938 216.144531 C 140.234375 220.214844 136.53125 223.550781 135.421875 228.730469 C 138.382812 225.769531 143.9375 224.285156 147.640625 223.175781 L 147.269531 223.550781 C 146.898438 223.917969 142.828125 226.878906 139.867188 230.210938 C 142.453125 230.210938 140.601562 229.839844 143.9375 230.582031 L 145.789062 230.582031 C 145.046875 230.953125 143.9375 231.691406 142.828125 232.0625 C 141.34375 232.804688 139.492188 233.914062 138.015625 234.65625 C 145.046875 243.539062 153.5625 250.941406 163.558594 255.757812 C 176.515625 262.050781 190.582031 264.273438 205.019531 262.421875 C 205.019531 261.683594 204.652344 260.941406 204.285156 259.832031 C 203.914062 258.722656 203.539062 257.980469 203.539062 256.867188 C 208.355469 247.980469 205.765625 232.433594 218.347656 226.136719 C 226.867188 221.699219 227.605469 219.476562 237.238281 221.324219 C 242.414062 222.4375 253.898438 226.136719 259.074219 225.027344 C 263.890625 222.4375 266.476562 220.957031 270.925781 217.996094 C 276.109375 219.105469 277.960938 218.363281 279.8125 215.773438 C 277.960938 218.363281 283.140625 206.148438 285.367188 201.703125 Z M 284.621094 198.746094 "/>
</clipPath>
<clipPath id="clip3">
  <path d="M 115 134 L 142 134 L 142 264 L 115 264 Z M 115 134 "/>
</clipPath>
<clipPath id="clip4">
  <path d="M 284.621094 198.746094 C 282.402344 192.449219 283.140625 181.714844 282.03125 180.234375 C 274.996094 170.609375 249.816406 169.128906 238.34375 156.539062 C 240.195312 150.246094 236.121094 145.433594 232.050781 141.359375 C 225.753906 136.917969 217.242188 138.769531 210.574219 140.617188 C 203.171875 139.140625 196.136719 136.175781 188.734375 134.324219 C 172.445312 132.472656 156.152344 143.949219 156.152344 143.949219 C 144.304688 151.355469 126.167969 166.90625 117.28125 175.789062 C 119.503906 176.160156 121.722656 174.3125 124.316406 174.3125 L 141.34375 169.867188 C 134.3125 175.792969 119.503906 185.789062 115.0625 193.933594 C 120.242188 192.082031 131.347656 186.15625 136.902344 185.417969 C 132.089844 189.488281 122.09375 197.632812 118.761719 202.816406 C 119.132812 203.1875 118.761719 203.558594 118.761719 203.925781 C 122.835938 201.703125 132.828125 195.78125 137.644531 195.410156 C 132.832031 200.222656 124.316406 209.851562 122.464844 216.144531 C 126.535156 213.554688 136.902344 208 141.34375 206.515625 C 140.234375 209.109375 138.015625 210.960938 136.53125 213.179688 C 134.3125 216.515625 129.496094 220.585938 129.496094 224.660156 C 133.199219 221.324219 137.644531 218.363281 142.085938 216.144531 C 140.234375 220.214844 136.53125 223.550781 135.421875 228.730469 C 138.382812 225.769531 143.9375 224.285156 147.640625 223.175781 L 147.269531 223.550781 C 146.898438 223.917969 142.828125 226.878906 139.867188 230.210938 C 142.453125 230.210938 140.601562 229.839844 143.9375 230.582031 L 145.789062 230.582031 C 145.046875 230.953125 143.9375 231.691406 142.828125 232.0625 C 141.34375 232.804688 139.492188 233.914062 138.015625 234.65625 C 145.046875 243.539062 153.5625 250.941406 163.558594 255.757812 C 176.515625 262.050781 190.582031 264.273438 205.019531 262.421875 C 205.019531 261.683594 204.652344 260.941406 204.285156 259.832031 C 203.914062 258.722656 203.539062 257.980469 203.539062 256.867188 C 208.355469 247.980469 205.765625 232.433594 218.347656 226.136719 C 226.867188 221.699219 227.605469 219.476562 237.238281 221.324219 C 242.414062 222.4375 253.898438 226.136719 259.074219 225.027344 C 263.890625 222.4375 266.476562 220.957031 270.925781 217.996094 C 276.109375 219.105469 277.960938 218.363281 279.8125 215.773438 C 277.960938 218.363281 283.140625 206.148438 285.367188 201.703125 Z M 284.621094 198.746094 "/>
</clipPath>
<clipPath id="clip5">
  <path d="M 140 134 L 201 134 L 201 264 L 140 264 Z M 140 134 "/>
</clipPath>
<clipPath id="clip6">
  <path d="M 284.621094 198.746094 C 282.402344 192.449219 283.140625 181.714844 282.03125 180.234375 C 274.996094 170.609375 249.816406 169.128906 238.34375 156.539062 C 240.195312 150.246094 236.121094 145.433594 232.050781 141.359375 C 225.753906 136.917969 217.242188 138.769531 210.574219 140.617188 C 203.171875 139.140625 196.136719 136.175781 188.734375 134.324219 C 172.445312 132.472656 156.152344 143.949219 156.152344 143.949219 C 144.304688 151.355469 126.167969 166.90625 117.28125 175.789062 C 119.503906 176.160156 121.722656 174.3125 124.316406 174.3125 L 141.34375 169.867188 C 134.3125 175.792969 119.503906 185.789062 115.0625 193.933594 C 120.242188 192.082031 131.347656 186.15625 136.902344 185.417969 C 132.089844 189.488281 122.09375 197.632812 118.761719 202.816406 C 119.132812 203.1875 118.761719 203.558594 118.761719 203.925781 C 122.835938 201.703125 132.828125 195.78125 137.644531 195.410156 C 132.832031 200.222656 124.316406 209.851562 122.464844 216.144531 C 126.535156 213.554688 136.902344 208 141.34375 206.515625 C 140.234375 209.109375 138.015625 210.960938 136.53125 213.179688 C 134.3125 216.515625 129.496094 220.585938 129.496094 224.660156 C 133.199219 221.324219 137.644531 218.363281 142.085938 216.144531 C 140.234375 220.214844 136.53125 223.550781 135.421875 228.730469 C 138.382812 225.769531 143.9375 224.285156 147.640625 223.175781 L 147.269531 223.550781 C 146.898438 223.917969 142.828125 226.878906 139.867188 230.210938 C 142.453125 230.210938 140.601562 229.839844 143.9375 230.582031 L 145.789062 230.582031 C 145.046875 230.953125 143.9375 231.691406 142.828125 232.0625 C 141.34375 232.804688 139.492188 233.914062 138.015625 234.65625 C 145.046875 243.539062 153.5625 250.941406 163.558594 255.757812 C 176.515625 262.050781 190.582031 264.273438 205.019531 262.421875 C 205.019531 261.683594 204.652344 260.941406 204.285156 259.832031 C 203.914062 258.722656 203.539062 257.980469 203.539062 256.867188 C 208.355469 247.980469 205.765625 232.433594 218.347656 226.136719 C 226.867188 221.699219 227.605469 219.476562 237.238281 221.324219 C 242.414062 222.4375 253.898438 226.136719 259.074219 225.027344 C 263.890625 222.4375 266.476562 220.957031 270.925781 217.996094 C 276.109375 219.105469 277.960938 218.363281 279.8125 215.773438 C 277.960938 218.363281 283.140625 206.148438 285.367188 201.703125 Z M 284.621094 198.746094 "/>
</clipPath>
<clipPath id="clip7">
  <path d="M 200 134 L 259 134 L 259 264 L 200 264 Z M 200 134 "/>
</clipPath>
<clipPath id="clip8">
  <path d="M 284.621094 198.746094 C 282.402344 192.449219 283.140625 181.714844 282.03125 180.234375 C 274.996094 170.609375 249.816406 169.128906 238.34375 156.539062 C 240.195312 150.246094 236.121094 145.433594 232.050781 141.359375 C 225.753906 136.917969 217.242188 138.769531 210.574219 140.617188 C 203.171875 139.140625 196.136719 136.175781 188.734375 134.324219 C 172.445312 132.472656 156.152344 143.949219 156.152344 143.949219 C 144.304688 151.355469 126.167969 166.90625 117.28125 175.789062 C 119.503906 176.160156 121.722656 174.3125 124.316406 174.3125 L 141.34375 169.867188 C 134.3125 175.792969 119.503906 185.789062 115.0625 193.933594 C 120.242188 192.082031 131.347656 186.15625 136.902344 185.417969 C 132.089844 189.488281 122.09375 197.632812 118.761719 202.816406 C 119.132812 203.1875 118.761719 203.558594 118.761719 203.925781 C 122.835938 201.703125 132.828125 195.78125 137.644531 195.410156 C 132.832031 200.222656 124.316406 209.851562 122.464844 216.144531 C 126.535156 213.554688 136.902344 208 141.34375 206.515625 C 140.234375 209.109375 138.015625 210.960938 136.53125 213.179688 C 134.3125 216.515625 129.496094 220.585938 129.496094 224.660156 C 133.199219 221.324219 137.644531 218.363281 142.085938 216.144531 C 140.234375 220.214844 136.53125 223.550781 135.421875 228.730469 C 138.382812 225.769531 143.9375 224.285156 147.640625 223.175781 L 147.269531 223.550781 C 146.898438 223.917969 142.828125 226.878906 139.867188 230.210938 C 142.453125 230.210938 140.601562 229.839844 143.9375 230.582031 L 145.789062 230.582031 C 145.046875 230.953125 143.9375 231.691406 142.828125 232.0625 C 141.34375 232.804688 139.492188 233.914062 138.015625 234.65625 C 145.046875 243.539062 153.5625 250.941406 163.558594 255.757812 C 176.515625 262.050781 190.582031 264.273438 205.019531 262.421875 C 205.019531 261.683594 204.652344 260.941406 204.285156 259.832031 C 203.914062 258.722656 203.539062 257.980469 203.539062 256.867188 C 208.355469 247.980469 205.765625 232.433594 218.347656 226.136719 C 226.867188 221.699219 227.605469 219.476562 237.238281 221.324219 C 242.414062 222.4375 253.898438 226.136719 259.074219 225.027344 C 263.890625 222.4375 266.476562 220.957031 270.925781 217.996094 C 276.109375 219.105469 277.960938 218.363281 279.8125 215.773438 C 277.960938 218.363281 283.140625 206.148438 285.367188 201.703125 Z M 284.621094 198.746094 "/>
</clipPath>
<clipPath id="clip9">
  <path d="M 258 134 L 286 134 L 286 264 L 258 264 Z M 258 134 "/>
</clipPath>
<clipPath id="clip10">
  <path d="M 284.621094 198.746094 C 282.402344 192.449219 283.140625 181.714844 282.03125 180.234375 C 274.996094 170.609375 249.816406 169.128906 238.34375 156.539062 C 240.195312 150.246094 236.121094 145.433594 232.050781 141.359375 C 225.753906 136.917969 217.242188 138.769531 210.574219 140.617188 C 203.171875 139.140625 196.136719 136.175781 188.734375 134.324219 C 172.445312 132.472656 156.152344 143.949219 156.152344 143.949219 C 144.304688 151.355469 126.167969 166.90625 117.28125 175.789062 C 119.503906 176.160156 121.722656 174.3125 124.316406 174.3125 L 141.34375 169.867188 C 134.3125 175.792969 119.503906 185.789062 115.0625 193.933594 C 120.242188 192.082031 131.347656 186.15625 136.902344 185.417969 C 132.089844 189.488281 122.09375 197.632812 118.761719 202.816406 C 119.132812 203.1875 118.761719 203.558594 118.761719 203.925781 C 122.835938 201.703125 132.828125 195.78125 137.644531 195.410156 C 132.832031 200.222656 124.316406 209.851562 122.464844 216.144531 C 126.535156 213.554688 136.902344 208 141.34375 206.515625 C 140.234375 209.109375 138.015625 210.960938 136.53125 213.179688 C 134.3125 216.515625 129.496094 220.585938 129.496094 224.660156 C 133.199219 221.324219 137.644531 218.363281 142.085938 216.144531 C 140.234375 220.214844 136.53125 223.550781 135.421875 228.730469 C 138.382812 225.769531 143.9375 224.285156 147.640625 223.175781 L 147.269531 223.550781 C 146.898438 223.917969 142.828125 226.878906 139.867188 230.210938 C 142.453125 230.210938 140.601562 229.839844 143.9375 230.582031 L 145.789062 230.582031 C 145.046875 230.953125 143.9375 231.691406 142.828125 232.0625 C 141.34375 232.804688 139.492188 233.914062 138.015625 234.65625 C 145.046875 243.539062 153.5625 250.941406 163.558594 255.757812 C 176.515625 262.050781 190.582031 264.273438 205.019531 262.421875 C 205.019531 261.683594 204.652344 260.941406 204.285156 259.832031 C 203.914062 258.722656 203.539062 257.980469 203.539062 256.867188 C 208.355469 247.980469 205.765625 232.433594 218.347656 226.136719 C 226.867188 221.699219 227.605469 219.476562 237.238281 221.324219 C 242.414062 222.4375 253.898438 226.136719 259.074219 225.027344 C 263.890625 222.4375 266.476562 220.957031 270.925781 217.996094 C 276.109375 219.105469 277.960938 218.363281 279.8125 215.773438 C 277.960938 218.363281 283.140625 206.148438 285.367188 201.703125 Z M 284.621094 198.746094 "/>
</clipPath>
</defs>
<g id="surface1">
<path style=" stroke:none;fill-rule:nonzero;fill:url(#linear0);" d="M 259.074219 90.269531 L 259.074219 89.898438 L 259.074219 90.269531 L 258.707031 89.898438 L 258.707031 90.269531 L 199.839844 113.59375 L 140.605469 90.269531 L 140.605469 89.898438 L 140.234375 90.269531 L 140.234375 89.898438 L 140.234375 90.269531 L 81 113.964844 L 81 299.445312 L 140.234375 276.859375 L 199.839844 299.445312 L 259.074219 276.859375 L 318.6875 299.445312 L 318.6875 113.964844 Z M 259.074219 90.269531 "/>
<path style=" stroke:none;fill-rule:nonzero;fill:url(#linear1);" d="M 81 113.964844 L 81 299.445312 L 140.605469 276.859375 L 140.605469 89.898438 Z M 81 113.964844 "/>
<path style=" stroke:none;fill-rule:nonzero;fill:url(#linear2);" d="M 199.839844 113.964844 L 199.839844 299.445312 L 140.234375 276.859375 L 140.234375 89.898438 Z M 199.839844 113.964844 "/>
<path style=" stroke:none;fill-rule:nonzero;fill:url(#linear3);" d="M 199.839844 113.964844 L 199.839844 299.445312 L 259.074219 276.859375 L 259.074219 89.898438 Z M 199.839844 113.964844 "/>
<path style=" stroke:none;fill-rule:nonzero;fill:url(#linear4);" d="M 318.6875 113.964844 L 318.6875 299.445312 L 258.707031 276.859375 L 258.707031 89.898438 Z M 318.6875 113.964844 "/>
<g clip-path="url(#clip1)" clip-rule="nonzero">
<g clip-path="url(#clip2)" clip-rule="nonzero">
<path style=" stroke:none;fill-rule:nonzero;fill:rgb(100%,100%,100%);fill-opacity:1;" d="M 199.839844 124.699219 C 260.773438 124.699219 310.167969 158.183594 310.167969 199.484375 C 310.167969 240.789062 260.773438 274.269531 199.839844 274.269531 C 138.914062 274.269531 89.515625 240.789062 89.515625 199.484375 C 89.515625 158.183594 138.914062 124.699219 199.839844 124.699219 Z M 199.839844 124.699219 "/>
</g>
</g>
<g clip-path="url(#clip3)" clip-rule="nonzero">
<g clip-path="url(#clip4)" clip-rule="nonzero">
<path style=" stroke:none;fill-rule:nonzero;fill:rgb(94.901961%,94.901961%,94.901961%);fill-opacity:1;" d="M 82.480469 117.296875 L 82.480469 305 L 141.347656 281.675781 L 141.347656 93.601562 Z M 82.480469 117.296875 "/>
</g>
</g>
<g clip-path="url(#clip5)" clip-rule="nonzero">
<g clip-path="url(#clip6)" clip-rule="nonzero">
<path style=" stroke:none;fill-rule:nonzero;fill:rgb(100%,100%,100%);fill-opacity:1;" d="M 200.214844 117.296875 L 200.214844 305 L 140.976562 281.675781 L 140.976562 93.601562 Z M 200.214844 117.296875 "/>
</g>
</g>
<g clip-path="url(#clip7)" clip-rule="nonzero">
<g clip-path="url(#clip8)" clip-rule="nonzero">
<path style=" stroke:none;fill-rule:nonzero;fill:rgb(94.901961%,94.901961%,94.901961%);fill-opacity:1;" d="M 200.214844 117.296875 L 200.214844 305 L 258.707031 281.675781 L 258.707031 93.601562 Z M 200.214844 117.296875 "/>
</g>
</g>
<g clip-path="url(#clip9)" clip-rule="nonzero">
<g clip-path="url(#clip10)" clip-rule="nonzero">
<path style=" stroke:none;fill-rule:nonzero;fill:rgb(100%,100%,100%);fill-opacity:1;" d="M 317.941406 117.296875 L 317.941406 305 L 258.707031 281.675781 L 258.707031 93.601562 Z M 317.941406 117.296875 "/>
</g>
</g>
</g>
</svg>
